<svg xmlns="http://www.w3.org/2000/svg" viewBox="0 0 24 24">
  <defs>
    <linearGradient id="igGradient" x1="0%" y1="0%" x2="100%" y2="100%">
      <stop offset="0%" stop-color="#f58529"></stop>
      <stop offset="50%" stop-color="#dd2a7b"></stop>
      <stop offset="100%" stop-color="#515bd4"></stop>
    </linearGradient>
  </defs>
  <path fill="url(#igGradient)" d="M7 2h10a5 5 0 015 5v10a5 5 0 01-5 5H7a5 5 0 01-5-5V7a5 5 0 015-5zm10 2H7a3 3 0 00-3 3v10a3 3 0 003 3h10a3 3 0 003-3V7a3 3 0 00-3-3zm-5 3.5a4.5 4.5 0 110 9 4.5 4.5 0 010-9zm0 2a2.5 2.5 0 100 5 2.5 2.5 0 000-5zm4.75-.9a1.05 1.05 0 110 2.1 1.05 1.05 0 010-2.1z"></path>
</svg>
