<svg xmlns="http://www.w3.org/2000/svg" viewBox="0 0 24 24" fill="#25D366">
  <path d="M12.04 2a9.94 9.94 0 00-8.54 15.01L2 22l5.15-1.35A9.93 9.93 0 1012.04 2zm0 18.13a8.1 8.1 0 01-4.12-1.14l-.3-.18-3.05.8.82-2.98-.2-.3a8.1 8.1 0 117.85 3.8zm4.47-6.07c-.25-.13-1.5-.74-1.73-.83-.23-.08-.4-.13-.57.13-.17.25-.65.83-.8 1-.15.17-.3.19-.55.06-.25-.13-1.06-.39-2.02-1.25-.75-.67-1.25-1.5-1.4-1.75-.15-.25-.02-.38.11-.51.11-.11.25-.3.38-.45.13-.15.17-.25.25-.42.08-.17.04-.32-.02-.45-.06-.13-.57-1.37-.78-1.87-.2-.48-.4-.42-.57-.42h-.48c-.17 0-.45.06-.68.32-.23.25-.9.88-.9 2.15s.92 2.5 1.04 2.67c.13.17 1.82 2.78 4.4 3.9.61.26 1.08.42 1.45.54.61.19 1.17.16 1.6.1.49-.07 1.5-.61 1.72-1.2.21-.6.21-1.11.15-1.2-.06-.09-.23-.15-.48-.28z"></path>
</svg>
